<svg width="300" height="300" viewBox="0 0 300 300" fill="none" xmlns="http://www.w3.org/2000/svg">
<path d="M300 150C300 232.843 232.843 300 150 300C67.1573 300 0 232.843 0 150C0 67.1573 67.1573 0 150 0C232.843 0 300 67.1573 300 150Z" fill="black"/>
<path d="M81.5 143.5L49 104.5H43L81.5 150L120.5 104.5H115L81.5 143.5Z" fill="white"/>
<path d="M39.5 104.5H33L75 156V204H80V153L39.5 104.5Z" fill="white"/>
<path d="M83 204V153L124 104.5H131.5L88 156V204H83Z" fill="white"/>
<path d="M118 154H145V158H118V154Z" fill="white"/>
<path d="M118 162H145V166H118V162Z" fill="white"/>
<path d="M146.5 111.5V116H198L149 204H154.5L205 114.5V111.5H146.5Z" fill="white"/>
<path d="M146.5 104.5V108.5H209V113L157.5 204H163L214 113V104.5H146.5Z" fill="white"/>
<path d="M248 104H253V204H248V104Z" fill="white"/>
<path d="M253 104V109H243V104H253Z" fill="white"/>
<path d="M240 113H245V204H240V113Z" fill="white"/>
<path d="M240.057 112.98L240 118.5L223.999 126.5V121.638L240.057 112.98Z" fill="white"/>
<path d="M243.011 104.028L243.031 109.015L223.742 119.041L223.731 114L243.011 104.028Z" fill="white"/>
</svg>
